<!DOCTYPE svg PUBLIC "-//W3C//DTD SVG 1.1//EN" "http://www.w3.org/Graphics/SVG/1.1/DTD/svg11.dtd">

<!-- Uploaded to: SVG Repo, www.svgrepo.com, Transformed by: SVG Repo Mixer Tools -->
<svg fill="rgb(249, 216, 222)" height="23px" width="23px" version="1.1" id="Layer_1" xmlns="http://www.w3.org/2000/svg" xmlns:xlink="http://www.w3.org/1999/xlink" viewBox="0 0 512 512" xml:space="preserve" stroke="rgb(249, 216, 222)">

<g id="SVGRepo_bgCarrier" stroke-width="0"/>

<g id="SVGRepo_tracerCarrier" stroke-linecap="round" stroke-linejoin="round"/>

<g id="SVGRepo_iconCarrier"> <g> <g> <path d="M422.957,0H89.044C61.426,0,38.957,22.469,38.957,50.087v411.826c0,27.618,22.469,50.087,50.087,50.087h333.913 c27.618,0,50.087-22.469,50.087-50.087V50.087C473.043,22.469,450.574,0,422.957,0z M172.522,478.609H89.044 c-9.206,0-16.696-7.49-16.696-16.696v-83.478h100.174V478.609z M172.522,345.043H72.348V244.87h100.174V345.043z M306.087,478.609 H205.913V378.435h100.174V478.609z M306.087,345.043H205.913V244.87h100.174V345.043z M439.652,461.913 c0,9.206-7.49,16.696-16.696,16.696h-83.478V244.87h100.174V461.913z M439.652,211.478H72.348V50.087 c0-9.206,7.49-16.696,16.696-16.696h333.913c9.206,0,16.696,7.49,16.696,16.696V211.478z"/> </g> </g> <g> <g> <path d="M389.565,66.783h-267.13c-9.22,0-16.696,7.475-16.696,16.696v77.913c0,9.22,7.475,16.696,16.696,16.696h267.13 c9.22,0,16.696-7.475,16.696-16.696V83.478C406.261,74.258,398.786,66.783,389.565,66.783z M372.87,144.696H139.13v-44.522H372.87 V144.696z"/> </g> </g> </g>

</svg>